<svg width="46" height="28" viewBox="0 0 46 28" fill="none" xmlns="http://www.w3.org/2000/svg">
<path d="M44.2344 6.82812C45.8516 7.32031 45.8516 9.5 44.2344 9.99219L24.6172 16.0391C23.2109 16.4609 21.9453 16.25 21.3125 16.0391L7.60156 11.8203C6.6875 12.3828 6.19531 13.3672 6.125 14.4219C6.75781 14.7734 7.25 15.4766 7.25 16.25C7.25 17.0234 6.82812 17.6562 6.26562 18.0781L8.02344 26.1641C8.16406 26.8672 7.67188 27.5 6.96875 27.5H2.96094C2.25781 27.5 1.76562 26.8672 1.90625 26.1641L3.66406 18.0781C3.10156 17.6562 2.75 17.0234 2.75 16.25C2.75 15.4766 3.17188 14.7734 3.875 14.3516C3.94531 13.1562 4.36719 11.9609 5.14062 11.0469L1.69531 9.99219C0.078125 9.5 0.078125 7.32031 1.69531 6.82812L21.3125 0.78125C22.3672 0.429688 23.5625 0.429688 24.6172 0.78125L44.2344 6.82812ZM25.25 18.2188L35.4453 15.0547L36.5 23C36.5 25.5312 30.4531 27.5 23 27.5C15.4766 27.5 9.5 25.5312 9.5 23L10.4844 15.0547L20.6797 18.2188C21.5234 18.5 23.2812 18.7812 25.25 18.2188Z" fill="#64A5AF"/>
</svg>
