<svg width="36" height="36" viewBox="0 0 36 36" fill="none" xmlns="http://www.w3.org/2000/svg">
<path d="M18 35.4375C8.36719 35.4375 0.5625 27.6328 0.5625 18C0.5625 8.36719 8.36719 0.5625 18 0.5625C27.6328 0.5625 35.4375 8.36719 35.4375 18C35.4375 27.6328 27.6328 35.4375 18 35.4375ZM26.1562 14.9062H18V9.98438C18 9.21094 17.0859 8.78906 16.5234 9.35156L8.50781 17.4375C8.15625 17.7891 8.15625 18.2812 8.50781 18.6328L16.5234 26.7188C17.0859 27.2109 18 26.8594 18 26.0859V21.0938H26.1562C26.5781 21.0938 27 20.7422 27 20.25V15.75C27 15.3281 26.5781 14.9062 26.1562 14.9062Z" fill="#64A5AF"/>
</svg>
