<svg width="21" height="32" viewBox="0 0 21 32" fill="none" xmlns="http://www.w3.org/2000/svg">
<path d="M20.5049 10.375C20.5049 15.2266 17.1299 19.2344 12.6299 20.2891V23.875H15.1611C15.583 23.875 16.0049 24.2969 16.0049 24.7188V27.5312C16.0049 28.0234 15.583 28.375 15.1611 28.375H12.6299V30.9062C12.6299 31.3984 12.208 31.75 11.7861 31.75H8.97363C8.48145 31.75 8.12988 31.3984 8.12988 30.9062V28.375H5.59863C5.10645 28.375 4.75488 28.0234 4.75488 27.5312V24.7188C4.75488 24.2969 5.10645 23.875 5.59863 23.875H8.12988V20.2891C3.55957 19.2344 0.254883 15.2266 0.254883 10.375C0.254883 4.82031 4.75488 0.25 10.3799 0.25C15.9346 0.25 20.5049 4.82031 20.5049 10.375ZM4.75488 10.375C4.75488 13.5391 7.21582 16 10.3799 16C13.4736 16 16.0049 13.5391 16.0049 10.375C16.0049 7.28125 13.4736 4.75 10.3799 4.75C7.21582 4.75 4.75488 7.28125 4.75488 10.375Z" fill="#64A5AF"/>
</svg>
