<svg width="18" height="36" viewBox="0 0 18 36" fill="none" xmlns="http://www.w3.org/2000/svg">
<path d="M9 0C11.4609 0 13.5 2.03906 13.5 4.5C13.5 7.03125 11.4609 9 9 9C6.46875 9 4.5 7.03125 4.5 4.5C4.5 2.03906 6.46875 0 9 0ZM17.3672 24.9609C17.6484 26.0156 16.8047 27 15.75 27H11.8125V34.3125C11.8125 35.2969 11.0391 36 10.125 36H7.875C6.89062 36 6.1875 35.2969 6.1875 34.3125V27H2.25C1.125 27 0.28125 26.0156 0.5625 24.9609L3.9375 11.4609C4.14844 10.6875 4.78125 10.125 5.625 10.125H6.39844C8.08594 10.8984 9.91406 10.8984 11.5312 10.125H12.375C13.1484 10.125 13.7812 10.6875 13.9922 11.4609L17.3672 24.9609Z" fill="#64A5AF"/>
</svg>
