<svg width="41" height="37" viewBox="0 0 41 37" fill="none" xmlns="http://www.w3.org/2000/svg">
<path d="M15.3281 30.3828C15.8203 31.3672 16.8047 32 18 32H27V34.8125C27 35.7969 26.2266 36.5 25.3125 36.5H1.6875C0.703125 36.5 0 35.7969 0 34.8125V2.1875C0 1.27344 0.703125 0.5 1.6875 0.5H15.75V10.0625C15.75 11.0469 16.4531 11.75 17.4375 11.75H27V15.0547L18 23.9844V29.75C17.7188 29.75 17.4375 29.6094 17.2969 29.3281C16.4531 27.6406 14.0625 27.2188 12.6562 28.3438L11.6719 25.3906C11.4609 24.6875 10.8281 24.2656 10.125 24.2656C9.35156 24.2656 8.71875 24.6875 8.50781 25.3906L7.24219 29.2578C7.10156 29.5391 6.82031 29.75 6.46875 29.75H5.625C4.99219 29.75 4.5 30.3125 4.5 30.875C4.5 31.5078 4.99219 32 5.625 32H6.46875C7.80469 32 8.92969 31.2266 9.35156 29.9609L10.125 27.7109L11.25 31.2969C11.6016 32.2109 12.8672 32.2812 13.3594 31.4375L13.8516 30.3125C14.0625 29.9609 14.4141 29.8906 14.625 29.8906C14.7656 29.8906 15.1172 29.9609 15.3281 30.3828ZM27 9.07812V9.5H18V0.5H18.4219C18.8438 0.5 19.2656 0.710938 19.6172 0.992188L26.5078 7.88281C26.7891 8.23438 27 8.65625 27 9.07812ZM20.25 24.8984L31.6406 13.5781L36.4219 18.3594L25.0312 29.75H20.25V24.8984ZM39.9375 12.3125C40.6406 13.0156 40.6406 14.1406 39.9375 14.8438L38.0391 16.7422L33.2578 11.9609L35.1562 10.0625C35.8594 9.35938 36.9844 9.35938 37.6875 10.0625L39.9375 12.3125Z" fill="#64A5AF"/>
</svg>
