<svg width="28" height="36" viewBox="0 0 28 36" fill="none" xmlns="http://www.w3.org/2000/svg">
<path d="M27.0078 7.38281C27.2891 7.73438 27.5 8.15625 27.5 8.57812V9H18.5V0H18.9219C19.3438 0 19.7656 0.210938 20.1172 0.492188L27.0078 7.38281ZM16.25 9.5625C16.25 10.5469 16.9531 11.25 17.9375 11.25H27.5V34.3125C27.5 35.2969 26.7266 36 25.8125 36H2.1875C1.20312 36 0.5 35.2969 0.5 34.3125V1.6875C0.5 0.773438 1.20312 0 2.1875 0H16.25V9.5625ZM5 5.0625V6.1875C5 6.53906 5.21094 6.75 5.5625 6.75H11.1875C11.4688 6.75 11.75 6.53906 11.75 6.1875V5.0625C11.75 4.78125 11.4688 4.5 11.1875 4.5H5.5625C5.21094 4.5 5 4.78125 5 5.0625ZM5 10.6875C5 11.0391 5.21094 11.25 5.5625 11.25H11.1875C11.4688 11.25 11.75 11.0391 11.75 10.6875V9.5625C11.75 9.28125 11.4688 9 11.1875 9H5.5625C5.21094 9 5 9.28125 5 9.5625V10.6875ZM15.125 29.25C16.7422 29.25 18.0781 27.8438 18.0781 26.0859C18.0781 24.6797 17.1641 23.4141 15.8984 23.0625L12.7344 22.0781C12.3125 22.0078 12.1016 21.6562 12.1016 21.2344C12.1016 20.6719 12.4531 20.25 12.9453 20.25H14.9141C15.1953 20.25 15.5469 20.3906 15.8281 20.5312C16.0391 20.6719 16.3203 20.6719 16.5312 20.4609L17.3047 19.6875C17.5859 19.4766 17.5859 19.0547 17.3047 18.8438C16.6719 18.3516 15.8984 18.0703 15.0547 18.0703V16.3125C15.0547 16.0312 14.8438 15.75 14.4922 15.75H13.3672C13.0859 15.75 12.8047 16.0312 12.8047 16.3125V18.0703C11.1875 18.0703 9.85156 19.4766 9.85156 21.2344C9.85156 22.6406 10.7656 23.8359 12.0312 24.2578L15.1953 25.2422C15.6172 25.3125 15.8281 25.6641 15.8281 26.0859C15.8281 26.6484 15.4766 27 14.9844 27H13.0156C12.7344 27 12.3828 26.9297 12.1016 26.7891C11.8906 26.6484 11.6094 26.6484 11.3984 26.8594L10.625 27.6328C10.3438 27.8438 10.3438 28.2656 10.625 28.4766C11.2578 28.9688 12.0312 29.25 12.875 29.25V30.9375C12.875 31.2891 13.0859 31.5 13.4375 31.5H14.5625C14.8438 31.5 15.125 31.2891 15.125 30.9375V29.25Z" fill="#64A5AF"/>
</svg>
