<svg width="37" height="36" viewBox="0 0 37 36" fill="none" xmlns="http://www.w3.org/2000/svg">
<path d="M36.9297 26.6484C36.9297 26.9297 37 27.1406 36.9297 27.4219V33.75C36.9297 35.0156 35.9453 36 34.6797 36H3.17969C1.98438 36 0.929688 35.0156 0.929688 33.75V27.4219C0.929688 27.1406 1 26.9297 1 26.6484L2.89844 15.3984C3.10938 14.3438 4.02344 13.5 5.14844 13.5H11.125V9H4.375C3.74219 9 3.25 8.50781 3.25 7.875V1.125C3.25 0.5625 3.74219 0 4.375 0H22.375C22.9375 0 23.5 0.5625 23.5 1.125V7.94531C23.5 8.50781 22.9375 9.07031 22.375 9.07031H15.625V13.5703H32.7812C33.9062 13.5703 34.8203 14.3438 35.0312 15.3984L36.9297 26.6484ZM20.6875 17.4375V18.5625C20.6875 19.1953 21.1797 19.6875 21.8125 19.6875H22.9375C23.5 19.6875 24.0625 19.1953 24.0625 18.5625V17.4375C24.0625 16.875 23.5 16.3125 22.9375 16.3125H21.8125C21.1797 16.3125 20.6875 16.875 20.6875 17.4375ZM18.4375 21.9375C17.8047 21.9375 17.3125 22.5 17.3125 23.0625V24.1875C17.3125 24.8203 17.8047 25.3125 18.4375 25.3125H19.5625C20.125 25.3125 20.6875 24.8203 20.6875 24.1875V23.0625C20.6875 22.5 20.125 21.9375 19.5625 21.9375H18.4375ZM16.1875 16.3125H15.0625C14.4297 16.3125 13.9375 16.875 13.9375 17.4375V18.5625C13.9375 19.1953 14.4297 19.6875 15.0625 19.6875H16.1875C16.75 19.6875 17.3125 19.1953 17.3125 18.5625V17.4375C17.3125 16.875 16.75 16.3125 16.1875 16.3125ZM6.625 5.625H20.125V3.375H6.625V5.625ZM9.4375 19.6875C10 19.6875 10.5625 19.1953 10.5625 18.5625V17.4375C10.5625 16.875 10 16.3125 9.4375 16.3125H8.3125C7.67969 16.3125 7.1875 16.875 7.1875 17.4375V18.5625C7.1875 19.1953 7.67969 19.6875 8.3125 19.6875H9.4375ZM10.5625 24.1875C10.5625 24.8203 11.0547 25.3125 11.6875 25.3125H12.8125C13.375 25.3125 13.9375 24.8203 13.9375 24.1875V23.0625C13.9375 22.5 13.375 21.9375 12.8125 21.9375H11.6875C11.0547 21.9375 10.5625 22.5 10.5625 23.0625V24.1875ZM25.75 32.0625V30.9375C25.75 30.6562 25.4688 30.375 25.1875 30.375H12.8125C12.4609 30.375 12.25 30.6562 12.25 30.9375V32.0625C12.25 32.4141 12.4609 32.625 12.8125 32.625H25.1875C25.4688 32.625 25.75 32.4141 25.75 32.0625ZM27.4375 24.1875V23.0625C27.4375 22.5 26.875 21.9375 26.3125 21.9375H25.1875C24.5547 21.9375 24.0625 22.5 24.0625 23.0625V24.1875C24.0625 24.8203 24.5547 25.3125 25.1875 25.3125H26.3125C26.875 25.3125 27.4375 24.8203 27.4375 24.1875ZM30.8125 18.5625V17.4375C30.8125 16.875 30.25 16.3125 29.6875 16.3125H28.5625C27.9297 16.3125 27.4375 16.875 27.4375 17.4375V18.5625C27.4375 19.1953 27.9297 19.6875 28.5625 19.6875H29.6875C30.25 19.6875 30.8125 19.1953 30.8125 18.5625Z" fill="#64A5AF"/>
</svg>
