<svg width="41" height="36" viewBox="0 0 41 36" fill="none" xmlns="http://www.w3.org/2000/svg">
<path d="M19.0547 10.1953C17.3672 9.70312 15.9609 8.4375 15.75 6.82031C15.4688 4.57031 17.2266 2.67188 19.5469 2.39062V1.125C19.5469 0.5625 20.0391 0 20.7422 0H21.9375C22.6406 0 23.2031 0.5625 23.2031 1.125V2.39062C24.0469 2.53125 24.8906 2.8125 25.5938 3.23438C25.8047 3.375 26.0156 3.58594 26.0156 3.9375C26.0156 4.07812 25.9453 4.21875 25.875 4.28906C25.8047 4.35938 25.8047 4.42969 25.7344 4.5L24.3984 5.76562C24.1172 5.97656 23.6953 6.04688 23.3438 5.90625C23.0625 5.76562 22.7812 5.69531 22.5 5.69531H20.0391C19.6875 5.69531 19.4062 5.97656 19.4062 6.32812C19.4062 6.60938 19.5469 6.82031 19.8281 6.89062L23.625 7.875C25.3828 8.36719 26.7188 9.63281 26.9297 11.25C27.2109 13.5 25.4531 15.3984 23.2031 15.6797V16.875C23.2031 17.5078 22.6406 18 21.9375 18H20.7422C20.0391 18 19.4766 17.5078 19.4766 16.875V15.6797C18.6328 15.6094 17.7891 15.2578 17.0859 14.8359C16.875 14.6953 16.6641 14.4844 16.6641 14.1328C16.6641 13.9922 16.7344 13.8516 16.8047 13.7812C16.875 13.7109 16.875 13.6406 16.9453 13.5703L18.2812 12.3047C18.5625 12.0938 18.9844 12.0234 19.4062 12.1641C19.6172 12.3047 19.8984 12.375 20.1797 12.375H22.6406C22.9922 12.375 23.2734 12.0938 23.2734 11.7422C23.2734 11.4609 23.1328 11.25 22.8516 11.1797L19.0547 10.1953ZM39.7266 23.1328C40.1484 23.4844 40.5 24.1172 40.5 24.75C40.5 25.5234 40.1484 26.1562 39.6562 26.5078L28.9688 35.0156C28.1953 35.6484 27.2109 36 26.1562 36H1.125C0.492188 36 0 35.5078 0 34.875V28.125C0 27.5625 0.492188 27 1.125 27H4.99219L8.22656 24.3984C9.70312 23.2031 11.4609 22.5703 13.5 22.5H24.75C25.9453 22.5 26.9297 23.5547 27 24.75C27 24.75 27 24.75 27 24.8203C27 24.8906 26.9297 25.0312 26.9297 25.1719C26.7891 26.2969 25.7344 27 24.6094 27H19.125C18.4922 27 18 27.5625 18 28.125C18 28.7578 18.4922 29.25 19.125 29.25H27.4219C28.4766 29.25 29.4609 28.8984 30.2344 28.2656L36.7031 23.1328C37.6172 22.4297 38.8828 22.3594 39.7266 23.1328Z" fill="#64A5AF"/>
</svg>
