<svg width="36" height="36" viewBox="0 0 36 36" fill="none" xmlns="http://www.w3.org/2000/svg">
<path d="M7.3125 15.75C8.22656 15.75 9 16.5234 9 17.4375V34.3125C9 35.2969 8.22656 36 7.3125 36H1.6875C0.703125 36 0 35.2969 0 34.3125V17.4375C0 16.5234 0.703125 15.75 1.6875 15.75H7.3125ZM4.5 33.1875C5.41406 33.1875 6.1875 32.4844 6.1875 31.5C6.1875 30.5859 5.41406 29.8125 4.5 29.8125C3.51562 29.8125 2.8125 30.5859 2.8125 31.5C2.8125 32.4844 3.51562 33.1875 4.5 33.1875ZM27 5.76562C27 8.71875 25.1719 10.4062 24.6094 12.375H31.7812C34.1016 12.375 35.9297 14.3438 35.9297 16.5234C36 17.7891 35.4375 19.125 34.5938 19.9688C35.2969 21.5859 35.1562 23.9062 33.9609 25.5234C34.5234 27.3516 33.9609 29.6016 32.7656 30.7969C33.1172 32.0625 32.9766 33.1172 32.3438 33.9609C30.9375 36 27.3516 36 24.3281 36H24.1172C20.7422 36 18 34.8047 15.75 33.8203C14.625 33.3281 13.1484 32.6953 12.0234 32.6953C11.6016 32.625 11.25 32.2734 11.25 31.8516V16.8047C11.25 16.5938 11.3203 16.3828 11.4609 16.1719C14.2734 13.4297 15.4688 10.5469 17.7188 8.22656C18.7734 7.17188 19.125 5.625 19.5469 4.07812C19.8281 2.8125 20.4609 0 21.9375 0C23.625 0 27 0.5625 27 5.76562Z" fill="#64A5AF"/>
</svg>
