<svg width="36" height="36" viewBox="0 0 36 36" fill="none" xmlns="http://www.w3.org/2000/svg">
<path d="M22.9219 15.3984C22.9219 16.875 21.7266 18 20.3203 18H15.3281V12.7969H20.3203C21.7266 12.7969 22.9219 13.9922 22.9219 15.3984ZM35.4375 18C35.4375 27.6328 27.6328 35.4375 18 35.4375C8.36719 35.4375 0.5625 27.6328 0.5625 18C0.5625 8.36719 8.36719 0.5625 18 0.5625C27.6328 0.5625 35.4375 8.36719 35.4375 18ZM26.3672 15.3984C26.3672 12.0234 23.6953 9.28125 20.3203 9.28125H11.8828V26.7188H15.3281V21.5156H20.3203C23.6953 21.5156 26.3672 18.7734 26.3672 15.3984Z" fill="#64A5AF"/>
</svg>
