<svg width="36" height="28" viewBox="0 0 36 28" fill="none" xmlns="http://www.w3.org/2000/svg">
<path d="M23.3438 18.5C22.9219 18.5 22.5 18.0781 22.5 17.6562V8.16406C22.5 7.74219 22.9219 7.25 23.3438 7.25H26.0859C26.5078 7.25 27 7.74219 27 8.16406V17.6562C27 18.0781 26.5078 18.5 26.0859 18.5H23.3438ZM30.0938 18.5C29.6719 18.5 29.25 18.0781 29.25 17.6562V1.41406C29.25 0.992188 29.6719 0.5 30.0938 0.5H32.8359C33.2578 0.5 33.75 0.992188 33.75 1.41406V17.6562C33.75 18.0781 33.2578 18.5 32.8359 18.5H30.0938ZM9.84375 18.5C9.42188 18.5 9 18.0781 9 17.6562V12.6641C9 12.2422 9.42188 11.75 9.84375 11.75H12.5859C13.0078 11.75 13.5 12.2422 13.5 12.6641V17.6562C13.5 18.0781 13.0078 18.5 12.5859 18.5H9.84375ZM16.5938 18.5C16.1719 18.5 15.75 18.0781 15.75 17.6562V3.66406C15.75 3.24219 16.1719 2.75 16.5938 2.75H19.3359C19.7578 2.75 20.25 3.24219 20.25 3.66406V17.6562C20.25 18.0781 19.7578 18.5 19.3359 18.5H16.5938ZM34.875 23C35.4375 23 36 23.5625 36 24.125V26.375C36 27.0078 35.4375 27.5 34.875 27.5H2.25C0.984375 27.5 0 26.5156 0 25.25V1.625C0 1.0625 0.492188 0.5 1.125 0.5H3.375C3.9375 0.5 4.5 1.0625 4.5 1.625V23H34.875Z" fill="#64A5AF"/>
</svg>
