<svg width="153" height="50" viewBox="0 0 153 50" fill="none" xmlns="http://www.w3.org/2000/svg">
<g clip-path="url(#clip0_2_154)">
<path d="M19.9938 40.401C19.3629 39.9813 18.8037 39.4626 18.3378 38.865C17.8253 38.2482 17.3504 37.601 16.9158 36.927C15.8959 35.4328 15.096 33.7998 14.5408 32.078C13.8738 30.078 13.5508 28.161 13.5508 26.286C13.5508 24.192 14.0038 22.364 14.8898 20.828C15.5466 19.6275 16.5122 18.6242 17.6868 17.922C18.8251 17.215 20.133 16.8281 21.4728 16.802C21.9418 16.802 22.4468 16.87 22.9828 17C23.3678 17.109 23.8368 17.281 24.4098 17.495C25.1388 17.776 25.5398 17.948 25.6758 17.99C26.1028 18.146 26.4618 18.214 26.7438 18.214C26.9578 18.214 27.2598 18.146 27.6028 18.042C27.7958 17.974 28.1598 17.854 28.6808 17.631C29.1968 17.443 29.6028 17.282 29.9258 17.162C30.4208 17.016 30.8998 16.881 31.3268 16.813C31.833 16.7332 32.3467 16.7121 32.8578 16.75C33.7434 16.8079 34.6157 16.9956 35.4468 17.307C36.8058 17.854 37.9048 18.708 38.7228 19.922C38.377 20.1351 38.0525 20.3809 37.7538 20.656C37.1034 21.2326 36.5494 21.9095 36.1128 22.661C35.5421 23.6881 35.2462 24.8451 35.2538 26.02C35.2748 27.463 35.6448 28.734 36.3738 29.833C36.9097 30.6475 37.6063 31.3441 38.4208 31.88C38.8378 32.161 39.1968 32.354 39.5408 32.484C39.3798 32.984 39.2078 33.468 39.0048 33.948C38.5444 35.0244 37.9864 36.0564 37.3378 37.031C36.7598 37.87 36.3068 38.495 35.9628 38.911C35.4268 39.546 34.9108 40.031 34.3898 40.369C33.8168 40.749 33.1398 40.952 32.4518 40.952C31.9858 40.9699 31.52 40.9135 31.0718 40.785C30.6868 40.655 30.3058 40.514 29.9308 40.353C29.5409 40.174 29.1389 40.0226 28.7278 39.9C27.7115 39.639 26.6459 39.6373 25.6288 39.895C25.2118 40.015 24.8108 40.155 24.4148 40.327C23.8578 40.561 23.4878 40.718 23.2738 40.785C22.8468 40.91 22.4038 40.988 21.9558 41.014C21.2628 41.014 20.6168 40.816 19.9768 40.415L19.9938 40.401ZM29.1338 15.786C28.2278 16.239 27.3628 16.432 26.5038 16.369C26.3688 15.504 26.5038 14.619 26.8628 13.65C27.1684 12.8291 27.62 12.0702 28.1958 11.41C28.8038 10.715 29.5416 10.1454 30.3678 9.73302C31.2478 9.28002 32.0868 9.03502 32.8888 8.99902C32.9928 9.90502 32.8888 10.796 32.5558 11.759C32.2476 12.6103 31.7968 13.403 31.2228 14.103C30.6368 14.799 29.9178 15.3708 29.1078 15.785L29.1338 15.786Z" fill="#666666"/>
</g>
<path d="M58.6332 18H56.9113L56.9227 17.1107H58.6332C59.2223 17.1107 59.7132 16.988 60.1059 16.7426C60.4986 16.4934 60.7931 16.146 60.9895 15.7004C61.1896 15.251 61.2896 14.7262 61.2896 14.1258V13.6217C61.2896 13.1497 61.233 12.7305 61.1197 12.3643C61.0064 11.9942 60.8403 11.6827 60.6213 11.4297C60.4023 11.1729 60.1342 10.9785 59.817 10.8463C59.5036 10.7141 59.143 10.648 58.7352 10.648H56.8773V9.75312H58.7352C59.2751 9.75312 59.7679 9.84375 60.2135 10.025C60.659 10.2025 61.0423 10.4611 61.3633 10.801C61.688 11.137 61.9372 11.5449 62.1109 12.0244C62.2846 12.5002 62.3715 13.0364 62.3715 13.633V14.1258C62.3715 14.7224 62.2846 15.2605 62.1109 15.74C61.9372 16.2158 61.6861 16.6217 61.3576 16.9578C61.0329 17.2939 60.6402 17.5525 60.1795 17.7338C59.7226 17.9113 59.2072 18 58.6332 18ZM57.4947 9.75312V18H56.4016V9.75312H57.4947ZM63.5779 15.0037V14.8734C63.5779 14.4316 63.6421 14.0219 63.7705 13.6443C63.8989 13.263 64.0839 12.9326 64.3256 12.6531C64.5673 12.3699 64.8599 12.1509 65.2035 11.9961C65.5471 11.8375 65.9323 11.7582 66.359 11.7582C66.7895 11.7582 67.1765 11.8375 67.5201 11.9961C67.8675 12.1509 68.162 12.3699 68.4037 12.6531C68.6492 12.9326 68.8361 13.263 68.9645 13.6443C69.0928 14.0219 69.157 14.4316 69.157 14.8734V15.0037C69.157 15.4455 69.0928 15.8552 68.9645 16.2328C68.8361 16.6104 68.6492 16.9408 68.4037 17.224C68.162 17.5035 67.8694 17.7225 67.5258 17.8811C67.1859 18.0359 66.8008 18.1133 66.3703 18.1133C65.9398 18.1133 65.5528 18.0359 65.2092 17.8811C64.8656 17.7225 64.571 17.5035 64.3256 17.224C64.0839 16.9408 63.8989 16.6104 63.7705 16.2328C63.6421 15.8552 63.5779 15.4455 63.5779 15.0037ZM64.6258 14.8734V15.0037C64.6258 15.3096 64.6617 15.5984 64.7334 15.8703C64.8051 16.1384 64.9128 16.3763 65.0563 16.584C65.2035 16.7917 65.3867 16.9559 65.6057 17.0768C65.8247 17.1938 66.0796 17.2523 66.3703 17.2523C66.6573 17.2523 66.9084 17.1938 67.1236 17.0768C67.3426 16.9559 67.5239 16.7917 67.6674 16.584C67.8109 16.3763 67.9185 16.1384 67.9902 15.8703C68.0658 15.5984 68.1035 15.3096 68.1035 15.0037V14.8734C68.1035 14.5714 68.0658 14.2863 67.9902 14.0182C67.9185 13.7463 67.809 13.5065 67.6617 13.2988C67.5182 13.0874 67.337 12.9212 67.118 12.8004C66.9027 12.6796 66.6497 12.6191 66.359 12.6191C66.072 12.6191 65.819 12.6796 65.6 12.8004C65.3848 12.9212 65.2035 13.0874 65.0563 13.2988C64.9128 13.5065 64.8051 13.7463 64.7334 14.0182C64.6617 14.2863 64.6258 14.5714 64.6258 14.8734ZM72.023 16.9125L73.5977 11.8715H74.2887L74.1527 12.874L72.5498 18H71.8758L72.023 16.9125ZM70.9639 11.8715L72.3063 16.9691L72.4025 18H71.6945L69.916 11.8715H70.9639ZM75.7953 16.9295L77.0754 11.8715H78.1176L76.3391 18H75.6367L75.7953 16.9295ZM74.4416 11.8715L75.9822 16.8275L76.1578 18H75.4895L73.8412 12.8627L73.7053 11.8715H74.4416ZM80.2416 13.1799V18H79.1938V11.8715H80.185L80.2416 13.1799ZM79.9924 14.7035L79.5563 14.6865C79.56 14.2674 79.6223 13.8803 79.7432 13.5254C79.864 13.1667 80.0339 12.8551 80.2529 12.5908C80.4719 12.3265 80.7325 12.1226 81.0346 11.9791C81.3404 11.8318 81.6784 11.7582 82.0484 11.7582C82.3505 11.7582 82.6224 11.7997 82.8641 11.8828C83.1057 11.9621 83.3115 12.0905 83.4814 12.268C83.6551 12.4454 83.7873 12.6758 83.8779 12.959C83.9686 13.2384 84.0139 13.5801 84.0139 13.9842V18H82.9604V13.9729C82.9604 13.6519 82.9132 13.3951 82.8188 13.2025C82.7244 13.0062 82.5865 12.8646 82.4053 12.7777C82.224 12.6871 82.0012 12.6418 81.7369 12.6418C81.4764 12.6418 81.2385 12.6965 81.0232 12.8061C80.8118 12.9156 80.6286 13.0666 80.4738 13.2592C80.3228 13.4518 80.2038 13.6727 80.117 13.9219C80.0339 14.1673 79.9924 14.4279 79.9924 14.7035ZM86.7439 9.3V18H85.6904V9.3H86.7439ZM88.1486 15.0037V14.8734C88.1486 14.4316 88.2128 14.0219 88.3412 13.6443C88.4696 13.263 88.6546 12.9326 88.8963 12.6531C89.138 12.3699 89.4306 12.1509 89.7742 11.9961C90.1178 11.8375 90.503 11.7582 90.9297 11.7582C91.3602 11.7582 91.7472 11.8375 92.0908 11.9961C92.4382 12.1509 92.7327 12.3699 92.9744 12.6531C93.2199 12.9326 93.4068 13.263 93.5352 13.6443C93.6635 14.0219 93.7277 14.4316 93.7277 14.8734V15.0037C93.7277 15.4455 93.6635 15.8552 93.5352 16.2328C93.4068 16.6104 93.2199 16.9408 92.9744 17.224C92.7327 17.5035 92.4401 17.7225 92.0965 17.8811C91.7566 18.0359 91.3715 18.1133 90.941 18.1133C90.5105 18.1133 90.1235 18.0359 89.7799 17.8811C89.4363 17.7225 89.1417 17.5035 88.8963 17.224C88.6546 16.9408 88.4696 16.6104 88.3412 16.2328C88.2128 15.8552 88.1486 15.4455 88.1486 15.0037ZM89.1965 14.8734V15.0037C89.1965 15.3096 89.2324 15.5984 89.3041 15.8703C89.3758 16.1384 89.4835 16.3763 89.627 16.584C89.7742 16.7917 89.9574 16.9559 90.1764 17.0768C90.3954 17.1938 90.6503 17.2523 90.941 17.2523C91.228 17.2523 91.4791 17.1938 91.6943 17.0768C91.9133 16.9559 92.0946 16.7917 92.2381 16.584C92.3816 16.3763 92.4892 16.1384 92.5609 15.8703C92.6365 15.5984 92.6742 15.3096 92.6742 15.0037V14.8734C92.6742 14.5714 92.6365 14.2863 92.5609 14.0182C92.4892 13.7463 92.3797 13.5065 92.2324 13.2988C92.0889 13.0874 91.9077 12.9212 91.6887 12.8004C91.4734 12.6796 91.2204 12.6191 90.9297 12.6191C90.6427 12.6191 90.3897 12.6796 90.1707 12.8004C89.9555 12.9212 89.7742 13.0874 89.627 13.2988C89.4835 13.5065 89.3758 13.7463 89.3041 14.0182C89.2324 14.2863 89.1965 14.5714 89.1965 14.8734ZM98.6555 16.9521V13.7973C98.6555 13.5556 98.6064 13.346 98.5082 13.1686C98.4138 12.9873 98.2703 12.8476 98.0777 12.7494C97.8852 12.6512 97.6473 12.6021 97.3641 12.6021C97.0997 12.6021 96.8675 12.6475 96.6674 12.7381C96.471 12.8287 96.3162 12.9477 96.2029 13.0949C96.0934 13.2422 96.0387 13.4008 96.0387 13.5707H94.9908C94.9908 13.3517 95.0475 13.1346 95.1607 12.9193C95.274 12.7041 95.4364 12.5096 95.6479 12.3359C95.8631 12.1585 96.1199 12.0187 96.4182 11.9168C96.7202 11.8111 97.0563 11.7582 97.4264 11.7582C97.8719 11.7582 98.2646 11.8337 98.6045 11.9848C98.9481 12.1358 99.2162 12.3643 99.4088 12.6701C99.6051 12.9722 99.7033 13.3517 99.7033 13.8086V16.6633C99.7033 16.8672 99.7203 17.0843 99.7543 17.3146C99.7921 17.545 99.8468 17.7432 99.9186 17.9094V18H98.8254C98.7725 17.8792 98.731 17.7187 98.7008 17.5186C98.6706 17.3146 98.6555 17.1258 98.6555 16.9521ZM98.8367 14.2844L98.848 15.0207H97.7889C97.4906 15.0207 97.2243 15.0452 96.9902 15.0943C96.7561 15.1396 96.5598 15.2095 96.4012 15.3039C96.2426 15.3983 96.1217 15.5173 96.0387 15.6607C95.9556 15.8005 95.9141 15.9647 95.9141 16.1535C95.9141 16.3461 95.9575 16.5217 96.0443 16.6803C96.1312 16.8389 96.2615 16.9654 96.4352 17.0598C96.6126 17.1504 96.8298 17.1957 97.0865 17.1957C97.4075 17.1957 97.6907 17.1277 97.9361 16.9918C98.1816 16.8559 98.376 16.6897 98.5195 16.4934C98.6668 16.297 98.7461 16.1063 98.7574 15.9213L99.2049 16.4254C99.1785 16.584 99.1067 16.7596 98.9896 16.9521C98.8726 17.1447 98.7159 17.3298 98.5195 17.5072C98.327 17.6809 98.0966 17.8263 97.8285 17.9434C97.5642 18.0566 97.2659 18.1133 96.9336 18.1133C96.5182 18.1133 96.1538 18.0321 95.8404 17.8697C95.5308 17.7074 95.2891 17.4902 95.1154 17.2184C94.9455 16.9427 94.8605 16.635 94.8605 16.2951C94.8605 15.9666 94.9247 15.6777 95.0531 15.4285C95.1815 15.1755 95.3665 14.966 95.6082 14.7998C95.8499 14.6299 96.1406 14.5015 96.4805 14.4146C96.8203 14.3278 97.1998 14.2844 97.6189 14.2844H98.8367ZM105.214 16.8105V9.3H106.268V18H105.305L105.214 16.8105ZM101.091 15.0037V14.8848C101.091 14.4165 101.148 13.9917 101.261 13.6104C101.378 13.2252 101.542 12.8948 101.754 12.6191C101.969 12.3435 102.224 12.132 102.518 11.9848C102.817 11.8337 103.149 11.7582 103.515 11.7582C103.9 11.7582 104.236 11.8262 104.523 11.9621C104.814 12.0943 105.06 12.2887 105.26 12.5455C105.464 12.7985 105.624 13.1044 105.741 13.4631C105.858 13.8218 105.939 14.2277 105.985 14.6809V15.202C105.943 15.6513 105.862 16.0553 105.741 16.4141C105.624 16.7728 105.464 17.0786 105.26 17.3316C105.06 17.5846 104.814 17.7791 104.523 17.915C104.233 18.0472 103.893 18.1133 103.504 18.1133C103.145 18.1133 102.817 18.0359 102.518 17.8811C102.224 17.7262 101.969 17.5091 101.754 17.2297C101.542 16.9503 101.378 16.6217 101.261 16.2441C101.148 15.8628 101.091 15.4493 101.091 15.0037ZM102.145 14.8848V15.0037C102.145 15.3096 102.175 15.5965 102.235 15.8646C102.299 16.1327 102.398 16.3687 102.53 16.5727C102.662 16.7766 102.83 16.937 103.034 17.0541C103.238 17.1674 103.481 17.224 103.764 17.224C104.112 17.224 104.397 17.1504 104.62 17.0031C104.846 16.8559 105.028 16.6614 105.163 16.4197C105.299 16.1781 105.405 15.9156 105.481 15.6324V14.2674C105.435 14.0597 105.369 13.8596 105.282 13.667C105.199 13.4706 105.09 13.2969 104.954 13.1459C104.822 12.9911 104.657 12.8684 104.461 12.7777C104.269 12.6871 104.04 12.6418 103.776 12.6418C103.489 12.6418 103.241 12.7022 103.034 12.823C102.83 12.9401 102.662 13.1025 102.53 13.3102C102.398 13.5141 102.299 13.752 102.235 14.0238C102.175 14.2919 102.145 14.5789 102.145 14.8848ZM110.499 15.0037V14.8734C110.499 14.4316 110.563 14.0219 110.692 13.6443C110.82 13.263 111.005 12.9326 111.247 12.6531C111.488 12.3699 111.781 12.1509 112.125 11.9961C112.468 11.8375 112.853 11.7582 113.28 11.7582C113.711 11.7582 114.098 11.8375 114.441 11.9961C114.789 12.1509 115.083 12.3699 115.325 12.6531C115.57 12.9326 115.757 13.263 115.886 13.6443C116.014 14.0219 116.078 14.4316 116.078 14.8734V15.0037C116.078 15.4455 116.014 15.8552 115.886 16.2328C115.757 16.6104 115.57 16.9408 115.325 17.224C115.083 17.5035 114.79 17.7225 114.447 17.8811C114.107 18.0359 113.722 18.1133 113.291 18.1133C112.861 18.1133 112.474 18.0359 112.13 17.8811C111.787 17.7225 111.492 17.5035 111.247 17.224C111.005 16.9408 110.82 16.6104 110.692 16.2328C110.563 15.8552 110.499 15.4455 110.499 15.0037ZM111.547 14.8734V15.0037C111.547 15.3096 111.583 15.5984 111.654 15.8703C111.726 16.1384 111.834 16.3763 111.977 16.584C112.125 16.7917 112.308 16.9559 112.527 17.0768C112.746 17.1938 113.001 17.2523 113.291 17.2523C113.578 17.2523 113.829 17.1938 114.045 17.0768C114.264 16.9559 114.445 16.7917 114.588 16.584C114.732 16.3763 114.84 16.1384 114.911 15.8703C114.987 15.5984 115.025 15.3096 115.025 15.0037V14.8734C115.025 14.5714 114.987 14.2863 114.911 14.0182C114.84 13.7463 114.73 13.5065 114.583 13.2988C114.439 13.0874 114.258 12.9212 114.039 12.8004C113.824 12.6796 113.571 12.6191 113.28 12.6191C112.993 12.6191 112.74 12.6796 112.521 12.8004C112.306 12.9212 112.125 13.0874 111.977 13.2988C111.834 13.5065 111.726 13.7463 111.654 14.0182C111.583 14.2863 111.547 14.5714 111.547 14.8734ZM118.44 13.1799V18H117.392V11.8715H118.383L118.44 13.1799ZM118.191 14.7035L117.755 14.6865C117.758 14.2674 117.821 13.8803 117.942 13.5254C118.062 13.1667 118.232 12.8551 118.451 12.5908C118.67 12.3265 118.931 12.1226 119.233 11.9791C119.539 11.8318 119.877 11.7582 120.247 11.7582C120.549 11.7582 120.821 11.7997 121.063 11.8828C121.304 11.9621 121.51 12.0905 121.68 12.268C121.854 12.4454 121.986 12.6758 122.076 12.959C122.167 13.2384 122.212 13.5801 122.212 13.9842V18H121.159V13.9729C121.159 13.6519 121.112 13.3951 121.017 13.2025C120.923 13.0062 120.785 12.8646 120.604 12.7777C120.422 12.6871 120.2 12.6418 119.935 12.6418C119.675 12.6418 119.437 12.6965 119.222 12.8061C119.01 12.9156 118.827 13.0666 118.672 13.2592C118.521 13.4518 118.402 13.6727 118.315 13.9219C118.232 14.1673 118.191 14.4279 118.191 14.7035ZM129.247 11.8715V12.6758H125.934V11.8715H129.247ZM127.055 10.3818H128.103V16.482C128.103 16.6897 128.135 16.8464 128.199 16.9521C128.263 17.0579 128.346 17.1277 128.448 17.1617C128.55 17.1957 128.66 17.2127 128.777 17.2127C128.864 17.2127 128.954 17.2051 129.049 17.19C129.147 17.1712 129.221 17.1561 129.27 17.1447L129.275 18C129.192 18.0264 129.083 18.051 128.947 18.0736C128.815 18.1001 128.654 18.1133 128.465 18.1133C128.209 18.1133 127.973 18.0623 127.757 17.9604C127.542 17.8584 127.37 17.6885 127.242 17.4506C127.117 17.2089 127.055 16.8842 127.055 16.4764V10.3818ZM131.524 9.3V18H130.476V9.3H131.524ZM131.275 14.7035L130.839 14.6865C130.842 14.2674 130.905 13.8803 131.026 13.5254C131.146 13.1667 131.316 12.8551 131.535 12.5908C131.754 12.3265 132.015 12.1226 132.317 11.9791C132.623 11.8318 132.961 11.7582 133.331 11.7582C133.633 11.7582 133.905 11.7997 134.146 11.8828C134.388 11.9621 134.594 12.0905 134.764 12.268C134.938 12.4454 135.07 12.6758 135.16 12.959C135.251 13.2384 135.296 13.5801 135.296 13.9842V18H134.243V13.9729C134.243 13.6519 134.196 13.3951 134.101 13.2025C134.007 13.0062 133.869 12.8646 133.688 12.7777C133.506 12.6871 133.284 12.6418 133.019 12.6418C132.759 12.6418 132.521 12.6965 132.306 12.8061C132.094 12.9156 131.911 13.0666 131.756 13.2592C131.605 13.4518 131.486 13.6727 131.399 13.9219C131.316 14.1673 131.275 14.4279 131.275 14.7035ZM139.408 18.1133C138.982 18.1133 138.595 18.0415 138.247 17.898C137.904 17.7508 137.607 17.545 137.358 17.2807C137.113 17.0163 136.924 16.7029 136.792 16.3404C136.659 15.9779 136.593 15.5814 136.593 15.151V14.9131C136.593 14.4146 136.667 13.971 136.814 13.582C136.962 13.1893 137.162 12.857 137.415 12.5852C137.668 12.3133 137.955 12.1075 138.276 11.9678C138.597 11.8281 138.929 11.7582 139.272 11.7582C139.71 11.7582 140.088 11.8337 140.405 11.9848C140.726 12.1358 140.989 12.3473 141.193 12.6191C141.396 12.8872 141.548 13.2044 141.646 13.5707C141.744 13.9332 141.793 14.3297 141.793 14.7602V15.2303H137.216V14.375H140.745V14.2957C140.73 14.0238 140.673 13.7595 140.575 13.5027C140.481 13.246 140.33 13.0345 140.122 12.8684C139.914 12.7022 139.631 12.6191 139.272 12.6191C139.035 12.6191 138.816 12.6701 138.615 12.7721C138.415 12.8702 138.243 13.0175 138.1 13.2139C137.957 13.4102 137.845 13.65 137.766 13.9332C137.687 14.2164 137.647 14.543 137.647 14.9131V15.151C137.647 15.4417 137.687 15.7155 137.766 15.9723C137.849 16.2253 137.968 16.448 138.123 16.6406C138.281 16.8332 138.472 16.9842 138.695 17.0937C138.921 17.2033 139.178 17.258 139.465 17.258C139.835 17.258 140.149 17.1825 140.405 17.0314C140.662 16.8804 140.887 16.6784 141.079 16.4254L141.714 16.9295C141.582 17.1296 141.413 17.3203 141.21 17.5016C141.006 17.6828 140.755 17.8301 140.456 17.9434C140.162 18.0566 139.812 18.1133 139.408 18.1133ZM61.085 28.5703L57.9912 38H55.499L59.7256 26.625H61.3115L61.085 28.5703ZM63.6553 38L60.5537 28.5703L60.3037 26.625H61.9053L66.1553 38H63.6553ZM63.5146 33.7656V35.6016H57.5068V33.7656H63.5146ZM69.0693 31.1719V41.25H66.8193V29.5469H68.9053L69.0693 31.1719ZM74.4209 33.6797V33.8438C74.4209 34.4583 74.348 35.0286 74.2021 35.5547C74.0615 36.0807 73.8532 36.5391 73.5771 36.9297C73.3011 37.3151 72.9574 37.6172 72.5459 37.8359C72.1396 38.0495 71.6709 38.1562 71.1396 38.1562C70.624 38.1562 70.1761 38.0521 69.7959 37.8438C69.4157 37.6354 69.0954 37.3438 68.835 36.9688C68.5798 36.5885 68.374 36.1484 68.2178 35.6484C68.0615 35.1484 67.9417 34.612 67.8584 34.0391V33.6094C67.9417 32.9948 68.0615 32.4323 68.2178 31.9219C68.374 31.4062 68.5798 30.9609 68.835 30.5859C69.0954 30.2057 69.4131 29.9115 69.7881 29.7031C70.1683 29.4948 70.6136 29.3906 71.124 29.3906C71.6605 29.3906 72.1318 29.4922 72.5381 29.6953C72.9495 29.8984 73.2933 30.1901 73.5693 30.5703C73.8506 30.9505 74.0615 31.4036 74.2021 31.9297C74.348 32.4557 74.4209 33.0391 74.4209 33.6797ZM72.1631 33.8438V33.6797C72.1631 33.3203 72.1318 32.9896 72.0693 32.6875C72.012 32.3802 71.9183 32.112 71.7881 31.8828C71.6631 31.6536 71.4964 31.4766 71.2881 31.3516C71.085 31.2214 70.8376 31.1562 70.5459 31.1562C70.2386 31.1562 69.9756 31.2057 69.7568 31.3047C69.5433 31.4036 69.3688 31.5469 69.2334 31.7344C69.098 31.9219 68.9964 32.1458 68.9287 32.4062C68.861 32.6667 68.8193 32.9609 68.8037 33.2891V34.375C68.8298 34.7604 68.9027 35.1068 69.0225 35.4141C69.1423 35.7161 69.3271 35.9557 69.5771 36.1328C69.8271 36.3099 70.1553 36.3984 70.5615 36.3984C70.8584 36.3984 71.1084 36.3333 71.3115 36.2031C71.5146 36.0677 71.6787 35.8828 71.8037 35.6484C71.9339 35.4141 72.0251 35.1432 72.0771 34.8359C72.1344 34.5286 72.1631 34.1979 72.1631 33.8438ZM78.0693 31.1719V41.25H75.8193V29.5469H77.9053L78.0693 31.1719ZM83.4209 33.6797V33.8438C83.4209 34.4583 83.348 35.0286 83.2021 35.5547C83.0615 36.0807 82.8532 36.5391 82.5771 36.9297C82.3011 37.3151 81.9574 37.6172 81.5459 37.8359C81.1396 38.0495 80.6709 38.1562 80.1396 38.1562C79.624 38.1562 79.1761 38.0521 78.7959 37.8438C78.4157 37.6354 78.0954 37.3438 77.835 36.9688C77.5798 36.5885 77.374 36.1484 77.2178 35.6484C77.0615 35.1484 76.9417 34.612 76.8584 34.0391V33.6094C76.9417 32.9948 77.0615 32.4323 77.2178 31.9219C77.374 31.4062 77.5798 30.9609 77.835 30.5859C78.0954 30.2057 78.4131 29.9115 78.7881 29.7031C79.1683 29.4948 79.6136 29.3906 80.124 29.3906C80.6605 29.3906 81.1318 29.4922 81.5381 29.6953C81.9495 29.8984 82.2933 30.1901 82.5693 30.5703C82.8506 30.9505 83.0615 31.4036 83.2021 31.9297C83.348 32.4557 83.4209 33.0391 83.4209 33.6797ZM81.1631 33.8438V33.6797C81.1631 33.3203 81.1318 32.9896 81.0693 32.6875C81.012 32.3802 80.9183 32.112 80.7881 31.8828C80.6631 31.6536 80.4964 31.4766 80.2881 31.3516C80.085 31.2214 79.8376 31.1562 79.5459 31.1562C79.2386 31.1562 78.9756 31.2057 78.7568 31.3047C78.5433 31.4036 78.3688 31.5469 78.2334 31.7344C78.098 31.9219 77.9964 32.1458 77.9287 32.4062C77.861 32.6667 77.8193 32.9609 77.8037 33.2891V34.375C77.8298 34.7604 77.9027 35.1068 78.0225 35.4141C78.1423 35.7161 78.3271 35.9557 78.5771 36.1328C78.8271 36.3099 79.1553 36.3984 79.5615 36.3984C79.8584 36.3984 80.1084 36.3333 80.3115 36.2031C80.5146 36.0677 80.6787 35.8828 80.8037 35.6484C80.9339 35.4141 81.0251 35.1432 81.0771 34.8359C81.1344 34.5286 81.1631 34.1979 81.1631 33.8438ZM94.8662 35.0234C94.8662 34.8203 94.835 34.638 94.7725 34.4766C94.7152 34.3099 94.6058 34.1589 94.4443 34.0234C94.2829 33.8828 94.0563 33.7448 93.7646 33.6094C93.473 33.474 93.0954 33.3333 92.6318 33.1875C92.1162 33.0208 91.6266 32.8333 91.1631 32.625C90.7048 32.4167 90.2985 32.1745 89.9443 31.8984C89.5954 31.6172 89.3193 31.2917 89.1162 30.9219C88.9183 30.5521 88.8193 30.1224 88.8193 29.6328C88.8193 29.1589 88.9235 28.7292 89.1318 28.3438C89.3402 27.9531 89.6318 27.6198 90.0068 27.3438C90.3818 27.0625 90.8245 26.8464 91.335 26.6953C91.8506 26.5443 92.4157 26.4688 93.0303 26.4688C93.8688 26.4688 94.6006 26.6198 95.2256 26.9219C95.8506 27.224 96.335 27.638 96.6787 28.1641C97.0277 28.6901 97.2021 29.2917 97.2021 29.9688H94.874C94.874 29.6354 94.8037 29.3438 94.6631 29.0938C94.5277 28.8385 94.3193 28.638 94.0381 28.4922C93.762 28.3464 93.4131 28.2734 92.9912 28.2734C92.585 28.2734 92.2464 28.3359 91.9756 28.4609C91.7048 28.5807 91.5016 28.7448 91.3662 28.9531C91.2308 29.1562 91.1631 29.3854 91.1631 29.6406C91.1631 29.8333 91.21 30.0078 91.3037 30.1641C91.4027 30.3203 91.5485 30.4661 91.7412 30.6016C91.9339 30.737 92.1709 30.8646 92.4521 30.9844C92.7334 31.1042 93.0589 31.2214 93.4287 31.3359C94.0485 31.5234 94.5928 31.7344 95.0615 31.9688C95.5355 32.2031 95.9313 32.4661 96.249 32.7578C96.5667 33.0495 96.8063 33.3802 96.9678 33.75C97.1292 34.1198 97.21 34.5391 97.21 35.0078C97.21 35.5026 97.1136 35.9453 96.9209 36.3359C96.7282 36.7266 96.4495 37.0573 96.085 37.3281C95.7204 37.599 95.2855 37.8047 94.7803 37.9453C94.2751 38.0859 93.71 38.1562 93.085 38.1562C92.5225 38.1562 91.9678 38.0833 91.4209 37.9375C90.874 37.7865 90.3766 37.5599 89.9287 37.2578C89.486 36.9557 89.1318 36.5703 88.8662 36.1016C88.6006 35.6328 88.4678 35.0781 88.4678 34.4375H90.8193C90.8193 34.7917 90.874 35.0911 90.9834 35.3359C91.0928 35.5807 91.2464 35.7786 91.4443 35.9297C91.6475 36.0807 91.887 36.1901 92.1631 36.2578C92.4443 36.3255 92.7516 36.3594 93.085 36.3594C93.4912 36.3594 93.8245 36.3021 94.085 36.1875C94.3506 36.0729 94.5459 35.9141 94.6709 35.7109C94.8011 35.5078 94.8662 35.2786 94.8662 35.0234ZM102.804 29.5469V31.1406H97.8818V29.5469H102.804ZM99.1006 27.4609H101.351V35.4531C101.351 35.6979 101.382 35.8854 101.444 36.0156C101.512 36.1458 101.611 36.237 101.741 36.2891C101.871 36.3359 102.035 36.3594 102.233 36.3594C102.374 36.3594 102.499 36.3542 102.608 36.3438C102.723 36.3281 102.819 36.3125 102.897 36.2969L102.905 37.9531C102.713 38.0156 102.504 38.0651 102.28 38.1016C102.056 38.138 101.809 38.1562 101.538 38.1562C101.043 38.1562 100.611 38.0755 100.241 37.9141C99.8766 37.7474 99.5954 37.4818 99.3975 37.1172C99.1995 36.7526 99.1006 36.2734 99.1006 35.6797V27.4609ZM103.522 33.8594V33.6953C103.522 33.0755 103.611 32.5052 103.788 31.9844C103.965 31.4583 104.223 31.0026 104.562 30.6172C104.9 30.2318 105.317 29.9323 105.812 29.7188C106.306 29.5 106.874 29.3906 107.515 29.3906C108.155 29.3906 108.726 29.5 109.226 29.7188C109.726 29.9323 110.145 30.2318 110.483 30.6172C110.827 31.0026 111.088 31.4583 111.265 31.9844C111.442 32.5052 111.53 33.0755 111.53 33.6953V33.8594C111.53 34.474 111.442 35.0443 111.265 35.5703C111.088 36.0911 110.827 36.5469 110.483 36.9375C110.145 37.3229 109.728 37.6224 109.233 37.8359C108.739 38.0495 108.171 38.1562 107.53 38.1562C106.89 38.1562 106.319 38.0495 105.819 37.8359C105.325 37.6224 104.905 37.3229 104.562 36.9375C104.223 36.5469 103.965 36.0911 103.788 35.5703C103.611 35.0443 103.522 34.474 103.522 33.8594ZM105.772 33.6953V33.8594C105.772 34.2135 105.804 34.5443 105.866 34.8516C105.929 35.1589 106.028 35.4297 106.163 35.6641C106.304 35.8932 106.486 36.0729 106.71 36.2031C106.934 36.3333 107.207 36.3984 107.53 36.3984C107.843 36.3984 108.111 36.3333 108.335 36.2031C108.559 36.0729 108.739 35.8932 108.874 35.6641C109.009 35.4297 109.108 35.1589 109.171 34.8516C109.239 34.5443 109.272 34.2135 109.272 33.8594V33.6953C109.272 33.3516 109.239 33.0286 109.171 32.7266C109.108 32.4193 109.007 32.1484 108.866 31.9141C108.731 31.6745 108.551 31.487 108.327 31.3516C108.103 31.2161 107.832 31.1484 107.515 31.1484C107.197 31.1484 106.926 31.2161 106.702 31.3516C106.483 31.487 106.304 31.6745 106.163 31.9141C106.028 32.1484 105.929 32.4193 105.866 32.7266C105.804 33.0286 105.772 33.3516 105.772 33.6953ZM115.163 31.3906V38H112.913V29.5469H115.03L115.163 31.3906ZM117.71 29.4922L117.671 31.5781C117.562 31.5625 117.429 31.5495 117.272 31.5391C117.121 31.5234 116.983 31.5156 116.858 31.5156C116.541 31.5156 116.265 31.5573 116.03 31.6406C115.801 31.7188 115.608 31.8359 115.452 31.9922C115.301 32.1484 115.187 32.3385 115.108 32.5625C115.035 32.7865 114.994 33.0417 114.983 33.3281L114.53 33.1875C114.53 32.6406 114.585 32.138 114.694 31.6797C114.804 31.2161 114.963 30.8125 115.171 30.4688C115.384 30.125 115.645 29.8594 115.952 29.6719C116.259 29.4844 116.611 29.3906 117.007 29.3906C117.132 29.3906 117.259 29.401 117.39 29.4219C117.52 29.4375 117.627 29.4609 117.71 29.4922ZM122.507 38.1562C121.851 38.1562 121.262 38.0521 120.741 37.8438C120.22 37.6302 119.778 37.3359 119.413 36.9609C119.054 36.5859 118.778 36.151 118.585 35.6562C118.392 35.1562 118.296 34.625 118.296 34.0625V33.75C118.296 33.1094 118.387 32.5234 118.569 31.9922C118.752 31.4609 119.012 31 119.351 30.6094C119.694 30.2188 120.111 29.9193 120.601 29.7109C121.09 29.4974 121.642 29.3906 122.257 29.3906C122.856 29.3906 123.387 29.4896 123.851 29.6875C124.314 29.8854 124.702 30.1667 125.015 30.5312C125.332 30.8958 125.572 31.3333 125.733 31.8438C125.895 32.349 125.976 32.9115 125.976 33.5312V34.4688H119.257V32.9688H123.765V32.7969C123.765 32.4844 123.707 32.2057 123.593 31.9609C123.483 31.7109 123.317 31.513 123.093 31.3672C122.869 31.2214 122.582 31.1484 122.233 31.1484C121.937 31.1484 121.681 31.2135 121.468 31.3438C121.254 31.474 121.08 31.6562 120.944 31.8906C120.814 32.125 120.715 32.401 120.647 32.7188C120.585 33.0312 120.554 33.375 120.554 33.75V34.0625C120.554 34.401 120.601 34.7135 120.694 35C120.793 35.2865 120.931 35.5339 121.108 35.7422C121.291 35.9505 121.509 36.112 121.765 36.2266C122.025 36.3411 122.319 36.3984 122.647 36.3984C123.054 36.3984 123.431 36.3203 123.78 36.1641C124.134 36.0026 124.439 35.7604 124.694 35.4375L125.788 36.625C125.611 36.8802 125.369 37.125 125.062 37.3594C124.759 37.5938 124.395 37.7865 123.968 37.9375C123.541 38.0833 123.054 38.1562 122.507 38.1562Z" fill="#666666"/>
<rect x="0.5" y="0.5" width="152" height="49" rx="5.94444" stroke="#666666"/>
<defs>
<clipPath id="clip0_2_154">
<rect width="32" height="32" fill="white" transform="translate(10.5557 9)"/>
</clipPath>
</defs>
</svg>
