<svg width="22" height="21" viewBox="0 0 22 21" fill="none" xmlns="http://www.w3.org/2000/svg">
<path d="M11.1695 2.34976C13.8836 2.34976 14.2537 2.34976 15.364 2.34976C16.3509 2.34976 16.8444 2.59649 17.2145 2.71985C17.7079 2.96658 18.078 3.08995 18.4481 3.46005C18.8182 3.83015 19.065 4.20024 19.1883 4.69371C19.3117 5.0638 19.4351 5.55727 19.5584 6.54419C19.5584 7.65449 19.5584 7.90122 19.5584 10.7386C19.5584 13.576 19.5584 13.8228 19.5584 14.9331C19.5584 15.92 19.3117 16.4135 19.1883 16.7836C18.9416 17.277 18.8182 17.6471 18.4481 18.0172C18.078 18.3873 17.7079 18.634 17.2145 18.7574C16.8444 18.8808 16.3509 19.0041 15.364 19.1275C14.2537 19.1275 14.007 19.1275 11.1695 19.1275C8.33213 19.1275 8.0854 19.1275 6.9751 19.1275C5.98818 19.1275 5.49471 18.8808 5.12462 18.7574C4.63115 18.5107 4.26105 18.3873 3.89096 18.0172C3.52086 17.6471 3.27413 17.277 3.15076 16.7836C3.0274 16.4135 2.90403 15.92 2.78066 14.9331C2.78066 13.8228 2.78066 13.576 2.78066 10.7386C2.78066 7.90122 2.78066 7.65449 2.78066 6.54419C2.78066 5.55727 3.0274 5.0638 3.15076 4.69371C3.39749 4.20024 3.52086 3.83015 3.89096 3.46005C4.26105 3.08995 4.63115 2.84322 5.12462 2.71985C5.49471 2.59649 5.98818 2.47312 6.9751 2.34976C8.0854 2.34976 8.45549 2.34976 11.1695 2.34976ZM11.1695 0.499268C8.33213 0.499268 8.0854 0.499268 6.9751 0.499268C5.86481 0.499268 5.12462 0.746 4.50779 0.992732C3.89096 1.23946 3.27413 1.60956 2.6573 2.22639C2.04047 2.84322 1.79374 3.33668 1.42364 4.07688C1.17691 4.69371 1.05354 5.4339 0.930176 6.54419C0.930176 7.65449 0.930176 8.02458 0.930176 10.7386C0.930176 13.576 0.930176 13.8228 0.930176 14.9331C0.930176 16.0434 1.17691 16.7836 1.42364 17.4004C1.67037 18.0172 2.04047 18.634 2.6573 19.2509C3.27413 19.8677 3.76759 20.1144 4.50779 20.4845C5.12462 20.7313 5.86481 20.8546 6.9751 20.978C8.0854 20.978 8.45549 20.978 11.1695 20.978C13.8836 20.978 14.2537 20.978 15.364 20.978C16.4743 20.978 17.2145 20.7313 17.8313 20.4845C18.4481 20.2378 19.065 19.8677 19.6818 19.2509C20.2986 18.634 20.5453 18.1406 20.9154 17.4004C21.1622 16.7836 21.2855 16.0434 21.4089 14.9331C21.4089 13.8228 21.4089 13.4527 21.4089 10.7386C21.4089 8.02458 21.4089 7.65449 21.4089 6.54419C21.4089 5.4339 21.1622 4.69371 20.9154 4.07688C20.6687 3.46005 20.2986 2.84322 19.6818 2.22639C19.065 1.60956 18.5715 1.36283 17.8313 0.992732C17.2145 0.746 16.4743 0.622633 15.364 0.499268C14.2537 0.499268 14.007 0.499268 11.1695 0.499268Z" fill="#F6F4F4"/>
<path d="M11.1695 5.4339C8.20876 5.4339 5.86481 7.77785 5.86481 10.7386C5.86481 13.6994 8.20876 16.0434 11.1695 16.0434C14.1303 16.0434 16.4743 13.6994 16.4743 10.7386C16.4743 7.77785 14.1303 5.4339 11.1695 5.4339ZM11.1695 14.1929C9.31905 14.1929 7.7153 12.7125 7.7153 10.7386C7.7153 8.88815 9.19569 7.28439 11.1695 7.28439C13.02 7.28439 14.6238 8.76478 14.6238 10.7386C14.6238 12.5891 13.02 14.1929 11.1695 14.1929Z" fill="#F6F4F4"/>
<path d="M16.5976 6.54419C17.279 6.54419 17.8313 5.99187 17.8313 5.31054C17.8313 4.62921 17.279 4.07688 16.5976 4.07688C15.9163 4.07688 15.364 4.62921 15.364 5.31054C15.364 5.99187 15.9163 6.54419 16.5976 6.54419Z" fill="#F6F4F4"/>
</svg>
