<svg width="21" height="21" viewBox="0 0 21 21" fill="none" xmlns="http://www.w3.org/2000/svg">
<path d="M5.26442 20.6079H1.06997V7.40777H5.26442V20.6079ZM3.16719 5.55729C1.81017 5.55729 0.823242 4.57036 0.823242 3.21334C0.823242 1.85631 1.93354 0.869385 3.16719 0.869385C4.52422 0.869385 5.51115 1.85631 5.51115 3.21334C5.51115 4.57036 4.52422 5.55729 3.16719 5.55729ZM20.5618 20.6079H16.3673V13.4527C16.3673 11.3555 15.5038 10.7387 14.2701 10.7387C13.0365 10.7387 11.8028 11.7256 11.8028 13.5761V20.6079H7.60836V7.40777H11.5561V9.25826C11.9262 8.3947 13.4065 7.03768 15.5038 7.03768C17.8477 7.03768 20.315 8.3947 20.315 12.4658V20.6079H20.5618Z" fill="#F6F4F4"/>
</svg>
