<svg width="21" height="17" viewBox="0 0 21 17" fill="none" xmlns="http://www.w3.org/2000/svg">
<path d="M20.0847 2.57021C19.3445 2.94031 18.6043 3.06368 17.7408 3.18704C18.6043 2.69358 19.2212 1.95338 19.4679 0.966458C18.7277 1.45992 17.8641 1.70665 16.8772 1.95338C16.137 1.21319 15.0267 0.719727 13.9164 0.719727C11.3258 0.719727 9.3519 3.18704 9.96873 5.65436C6.63785 5.53099 3.67707 3.92724 1.57985 1.45992C0.469557 3.31041 1.08639 5.65436 2.81351 6.88802C2.19668 6.88802 1.57985 6.64129 0.963021 6.39456C0.963021 8.24504 2.32005 9.97216 4.17053 10.4656C3.5537 10.589 2.93687 10.7124 2.32005 10.589C2.81351 12.1927 4.2939 13.4264 6.14439 13.4264C4.664 14.5367 2.44341 15.1535 0.346191 14.9068C2.19668 16.0171 4.2939 16.7573 6.51448 16.7573C14.0398 16.7573 18.2342 10.4656 17.9875 4.66743C18.8511 4.17397 19.5913 3.43378 20.0847 2.57021Z" fill="#F6F4F4"/>
</svg>
